<svg xmlns="http://www.w3.org/2000/svg" width="240" height="32" viewBox="0 0 240 32">
  <g fill="none" stroke="#c9a84c" stroke-linecap="round" stroke-linejoin="round">
    <path stroke-width="0.6" opacity="0.45" d="M0 16h88"/>
    <path stroke-width="0.6" opacity="0.45" d="M152 16h88"/>
    <circle cx="120" cy="16" r="3.5" stroke-width="0.7" opacity="0.5"/>
    <path stroke-width="0.5" opacity="0.35" d="M108 16c-4-6-8-6-12 0M132 16c4-6 8-6 12 0"/>
    <path stroke-width="0.45" opacity="0.28" d="M96 16c-2-4-4-4-6 0M144 16c2-4 4-4 6 0"/>
    <path stroke-width="0.45" opacity="0.38" d="M120 8c3 4 7 5 7 9 0 2-2 4-4 4-2 0-4-2-5-4 2-3 4-5 2-9z"/>
    <path stroke-width="0.45" opacity="0.38" d="M112 16c4 3 5 7 9 7 2 0 4-2 4-4 0-2-2-4-4-4-3 2-5 4-9 1z"/>
    <path stroke-width="0.45" opacity="0.38" d="M128 16c-4 3-5 7-9 7-2 0-4-2-4-4 0-2 2-4 4-4 3 2 5 4 9 1z"/>
  </g>
</svg>
