<svg xmlns="http://www.w3.org/2000/svg" viewBox="0 0 22 15" role="img" aria-label="Монгол">
  <clipPath id="mn-clip">
    <rect width="22" height="15" rx="1.5"/>
  </clipPath>
  <g clip-path="url(#mn-clip)">
    <rect width="22" height="15" fill="#da2032"/>
    <rect x="7.333" width="7.333" height="15" fill="#0066b3"/>
    <g fill="#fcd116">
      <path d="M4.9 1.8c.7 1.2 1.6 1.8 1.6 3.1 0 1-.7 1.9-1.6 2.2-.9-.3-1.6-1.2-1.6-2.2 0-1.3.9-1.9 1.6-3.1z"/>
      <circle cx="4.9" cy="8.8" r="1.15"/>
      <path d="M3.75 9.95a1.15 1.15 0 0 0 2.3 0 1.15 1.15 0 0 1-2.3 0z"/>
      <rect x="4.25" y="10.1" width="1.3" height="2.6" rx=".2"/>
      <path d="M3.55 12.7h2.7l-.45 1.35H4l-.45-1.35z"/>
      <path d="M3.35 12.55c.55.45 1.25.65 1.55.65.3 0 1-.2 1.55-.65-.45.35-.95.55-1.55.55s-1.1-.2-1.55-.55z"/>
      <path d="M3.2 11.95c.45.35.95.5 1.7.35-.55.25-1.15.25-1.7 0 .35-.15.75-.25 1-.35-.75 0-1.25.15-1.7.35z"/>
      <path d="M6.6 11.95c-.45.35-.95.5-1.7.35.55.25 1.15.25 1.7 0-.35-.15-.75-.25-1-.35.75 0 1.25.15 1.7.35z"/>
    </g>
  </g>
</svg>
